<?xml version="1.0" encoding="utf-8"?>
<!-- Generator: Adobe Illustrator 24.1.2, SVG Export Plug-In . SVG Version: 6.00 Build 0)  -->
<svg version="1.1" id="레이어_1" xmlns="http://www.w3.org/2000/svg" xmlns:xlink="http://www.w3.org/1999/xlink" x="0px"
	 y="0px" viewBox="0 0 78 156" style="enable-background:new 0 0 78 156;" xml:space="preserve">
<style type="text/css">
	.st0{fill:#508AFF;}
	.st1{fill:#E6E6E6;}
</style>
<g>
	<g id="jpn_epg_keyhelp_icon_blue-2">
		<path id="사각형_1020" class="st0" d="M24,18h30c11.6,0,21,9.4,21,21l0,0c0,11.6-9.4,21-21,21H24C12.4,60,3,50.6,3,39l0,0
			C3,27.4,12.4,18,24,18z"/>
		<path id="패스_277" class="st1" d="M53.4,36.6c0,0.1-0.1,0.2-0.2,0.3c0,0,0,0-0.1,0l-4.4-0.1H29.6l-4.4,0.1
			c-0.1,0-0.2-0.1-0.3-0.2c0,0,0,0,0-0.1v-1.3c0-0.1,0.1-0.2,0.2-0.3c0,0,0,0,0.1,0l4.4,0.1h8.3v-2.4h-4l-4.6,0.1
			c-0.1,0-0.2-0.1-0.3-0.2c0,0,0,0,0-0.1v-1.2c0-0.1,0.1-0.2,0.2-0.3c0,0,0,0,0.1,0l4.6,0.1h4v-2.2H32L27.4,29
			c-0.2,0-0.3-0.1-0.3-0.3v-1.3c0-0.2,0.1-0.3,0.3-0.3l4.6,0.1h5.9c0-1.1,0-2.2-0.2-3.3c1,0,1.7,0.1,2.2,0.2c0.3,0,0.4,0.1,0.4,0.3
			c0,0.2-0.1,0.4-0.2,0.6c-0.2,0.7-0.2,1.5-0.2,2.2h6.3l4.7-0.1c0.1,0,0.2,0.1,0.3,0.2c0,0,0,0,0,0.1v1.3c0,0.1-0.1,0.2-0.2,0.3
			c0,0,0,0-0.1,0L46.2,29h-6.3v2.2h4.7l4.6-0.1c0.1,0,0.2,0.1,0.3,0.2c0,0,0,0,0,0.1v1.2c0,0.1-0.1,0.2-0.2,0.3c0,0,0,0-0.1,0
			l-4.6-0.1h-4.7v2.4h8.9l4.4-0.1c0.1,0,0.2,0.1,0.3,0.2c0,0,0,0,0,0.1L53.4,36.6z M48.1,50.6c0.1,0.8-0.2,1.7-0.8,2.3
			c-0.5,0.4-1.9,0.7-4.2,0.7c-0.2,0-0.4,0-0.6-0.1c-0.1-0.2-0.2-0.3-0.2-0.5c-0.1-0.5-0.4-1-0.7-1.4c1,0.1,2,0.1,3.1,0.1
			c0.6,0.1,1.2-0.4,1.3-1c0-0.1,0-0.2,0-0.3v-2.1H32.3v1.7l0.1,3.7c0,0.2-0.1,0.2-0.3,0.2h-1.6c-0.2,0-0.3-0.1-0.3-0.2l0.1-3.6v-7.3
			l-0.1-3.7c0-0.1,0.1-0.2,0.2-0.3c0,0,0,0,0.1,0l4.5,0.1h8.3l4.5-0.1c0.2,0,0.3,0.1,0.3,0.3L48,42.9v3.9L48.1,50.6z M46,42.8v-2.2
			H32.3v2.2H46z M46,46.6v-2.2H32.3v2.2L46,46.6z"/>
	</g>
</g>
<g>
	<g id="jpn_epg_keyhelp_icon_blue-2_1_">
		<path id="사각형_1020_1_" class="st0" d="M24,96h30c11.6,0,21,9.4,21,21l0,0c0,11.6-9.4,21-21,21H24c-11.6,0-21-9.4-21-21l0,0
			C3,105.4,12.4,96,24,96z"/>
		<path id="패스_277_1_" class="st1" d="M53.4,114.6c0,0.1-0.1,0.2-0.2,0.3c0,0,0,0-0.1,0l-4.4-0.1H29.6l-4.4,0.1
			c-0.1,0-0.2-0.1-0.3-0.2c0,0,0,0,0-0.1v-1.3c0-0.1,0.1-0.2,0.2-0.3c0,0,0,0,0.1,0l4.4,0.1h8.3v-2.4h-4l-4.6,0.1
			c-0.1,0-0.2-0.1-0.3-0.2c0,0,0,0,0-0.1v-1.2c0-0.1,0.1-0.2,0.2-0.3c0,0,0,0,0.1,0l4.6,0.1h4v-2.2H32l-4.6,0.1
			c-0.2,0-0.3-0.1-0.3-0.3v-1.3c0-0.2,0.1-0.3,0.3-0.3l4.6,0.1h5.9c0-1.1,0-2.2-0.2-3.3c1,0,1.7,0.1,2.2,0.2c0.3,0,0.4,0.1,0.4,0.3
			c0,0.2-0.1,0.4-0.2,0.6c-0.2,0.7-0.2,1.5-0.2,2.2h6.3l4.7-0.1c0.1,0,0.2,0.1,0.3,0.2c0,0,0,0,0,0.1v1.3c0,0.1-0.1,0.2-0.2,0.3
			c0,0,0,0-0.1,0l-4.7-0.1h-6.3v2.2h4.7l4.6-0.1c0.1,0,0.2,0.1,0.3,0.2c0,0,0,0,0,0.1v1.2c0,0.1-0.1,0.2-0.2,0.3c0,0,0,0-0.1,0
			l-4.6-0.1h-4.7v2.4h8.9l4.4-0.1c0.1,0,0.2,0.1,0.3,0.2c0,0,0,0,0,0.1L53.4,114.6z M48.1,128.6c0.1,0.8-0.2,1.7-0.8,2.3
			c-0.5,0.4-1.9,0.7-4.2,0.7c-0.2,0-0.4,0-0.6-0.1c-0.1-0.2-0.2-0.3-0.2-0.5c-0.1-0.5-0.4-1-0.7-1.4c1,0.1,2,0.1,3.1,0.1
			c0.6,0.1,1.2-0.4,1.3-1c0-0.1,0-0.2,0-0.3v-2.1H32.3v1.7l0.1,3.7c0,0.2-0.1,0.2-0.3,0.2h-1.6c-0.2,0-0.3-0.1-0.3-0.2l0.1-3.6v-7.3
			l-0.1-3.7c0-0.1,0.1-0.2,0.2-0.3c0,0,0,0,0.1,0l4.5,0.1h8.3l4.5-0.1c0.2,0,0.3,0.1,0.3,0.3l-0.1,3.9v3.9L48.1,128.6z M46,120.8
			v-2.2H32.3v2.2H46z M46,124.6v-2.2H32.3v2.2L46,124.6z"/>
	</g>
</g>
</svg>
