<?xml version="1.0" encoding="utf-8"?>
<!-- Generator: Adobe Illustrator 23.0.4, SVG Export Plug-In . SVG Version: 6.00 Build 0)  -->
<svg version="1.1" id="Layer_1" xmlns="http://www.w3.org/2000/svg" xmlns:xlink="http://www.w3.org/1999/xlink" x="0px" y="0px"
	 viewBox="0 0 106.5 106.5" style="enable-background:new 0 0 106.5 106.5;" xml:space="preserve">
<style type="text/css">
	.st0{fill:none;stroke:#000000;stroke-width:2;stroke-linecap:round;stroke-linejoin:round;}
	.st1{fill:#FFD60D;}
	.st2{fill:#FFD60D;stroke:#000000;stroke-linecap:round;stroke-linejoin:round;}
	.st3{fill:#4DBBB5;}
	.st4{fill:#FDB515;}
	.st5{fill:#FFCD6F;}
	.st6{fill:#F59C1E;}
	.st7{fill:#F38000;}
	.st8{fill:#EE5F38;}
	.st9{opacity:0.63;fill:#FFFFFF;enable-background:new    ;}
	.st10{opacity:0.5;fill:#FFFFFF;enable-background:new    ;}
	.st11{opacity:0.61;fill:#FFCD6F;}
	.st12{fill:#FFFFFF;}
	.st13{opacity:0.82;fill:#FFFFFF;enable-background:new    ;}
	.st14{fill:none;stroke:#000000;stroke-width:2;stroke-miterlimit:10;}
</style>
<title>spotlight</title>
<path class="st0" d="M87.1,99.6l-1.1,0.8"/>
<path class="st0" d="M97.7,89c-2.4,3-5,5.8-7.9,8.4"/>
<path class="st0" d="M104.9,76.9c-0.8,1.7-1.6,3.4-2.5,5"/>
<polygon class="st1" points="4.6,28.7 5.4,29.1 4.6,29.5 4.2,30.2 3.8,29.5 3.1,29.1 3.8,28.7 4.2,27.9 "/>
<polygon class="st1" points="5.8,18.4 8,19.6 5.8,20.9 4.5,23.1 3.3,20.9 1,19.6 3.3,18.4 4.5,16.2 "/>
<polygon class="st1" points="102.1,22 104.4,23.2 102.1,24.4 100.9,26.7 99.6,24.4 97.4,23.2 99.6,22 100.9,19.7 "/>
<polygon class="st1" points="101.9,98.9 104.1,100.1 101.9,101.3 100.6,103.6 99.4,101.3 97.2,100.1 99.4,98.9 100.6,96.6 "/>
<polygon class="st1" points="101.8,4.9 105.3,6.8 101.8,8.7 99.8,12.3 97.9,8.7 94.3,6.8 97.9,4.9 99.8,1.3 "/>
<polygon class="st1" points="7.8,95 9,95.6 7.8,96.3 7.1,97.6 6.5,96.3 5.2,95.6 6.5,95 7.1,93.7 "/>
<polygon class="st2" points="16.6,6.1 22.3,4.9 20.2,10.4 21.4,16 16,13.9 10.3,15.1 12.4,9.7 11.2,4 "/>
<path class="st3" d="M78.6,11.9c0.8,0.7-48.8-7.4-72.3,25.2c0,0,6.1-23.9,27.6-29.9C33.9,7.2,63.5-2.9,78.6,11.9z"/>
<path class="st4" d="M52.9,3.2c27.4,0,49.6,22.2,49.6,49.6s-22.2,49.6-49.6,49.6C27.9,102.5,7.2,84,3.8,60c-0.3-2.3-0.5-4.7-0.5-7.1
	C3.3,25.5,25.5,3.2,52.9,3.2z"/>
<path class="st5" d="M2.9,58.7c0,0,16.5-51.8,74.4-49.8l5,3.4C82.3,12.3,34.9,5.5,2.9,58.7z"/>
<path class="st6" d="M3.2,63.1c0,0,27-44.7,82.1-48.4l8.2,8c0,0-45.1-3.1-88.9,44.8L3.2,63.1z"/>
<path class="st7" d="M14,84.4c0,0,6.1-2.2,11.6-5.2c8.1-4.5,10.7-2.9,17.6-8.9c7.8-6.9,16.1-9.9,17.5-10.4c4.2-1.7,11.1-2.4,16.3-4
	c5.7-1.7,9.8-4.2,15.4-5.1c3.2-0.5,8.2-1.9,10.5-0.8c0,0-0.4,7.2-0.9,13.7c0,0-3.4-2.7-7.9-2.1c-4.1,0.5-9,4.2-16.1,5.2
	c-4.5,0.6-11.5,1-16.8,1.6c-8.9,1.1-14.2,6-24.7,13.6c-4.8,3.5-16.5,3.8-21.2,4.3L14,84.4z"/>
<path class="st8" d="M14.9,71.7c1.7-0.8,2.4-2.9,3.6-4.4c1.6-2,4.1-2.9,6.5-3.4s5-0.7,7.3-1.5c4.7-1.6,8.2-5.5,11.4-9.2
	c0.7-0.8,1.4-1.6,2.3-2.1c1.4-0.8,3.2-0.9,4.8-1.1c4.1-0.4,8-1.6,11.6-3.6c0.9-0.5,1.9-1.1,2.5-1.9c0.5-0.6,0.8-1.4,1.3-1.9
	c1-1.1,2.5-1.4,4-1.3c1.4,0.1,2.9,0.4,4.3,0.5c3.7,0.1,7.1-1.9,10.4-3.7c3.3-1.8,7.1-3.4,10.6-2.3c3.6,1.1,6,5,5.4,8.7
	c-4.1-0.1-8.2-0.2-12.3-0.1c-2,0-4.2,0.1-5.8,1.3c-1.5,1.1-2.3,2.9-3.6,4.2c-2,2.2-5.1,3.1-8,3.7c-7.2,1.5-15,1.9-21.1,6.1
	c-1.7,1.2-3.2,2.6-5,3.6c-3.7,1.9-8.1,1.6-12.3,1.5c-4.2-0.1-8.7,0.3-11.8,3.1c-1.7,1.6-2.8,4-5,4.9c-0.8,0.3-6.4,1.3-6.8,0.8
	C8.2,72.3,14.3,71.9,14.9,71.7z"/>
<path class="st5" d="M15.9,73.1c4.7-2,7.9-6.6,12.8-8.1c4.3-1.3,9.1,0.1,13.3-1.5c4.3-1.6,7.1-5.9,11.3-7.7c2.2-1,4.7-1.1,7.2-1.3
	c2.6-0.2,5.2-0.3,7.8-0.5c1.2-0.1,2.4-0.1,3.5-0.6c2.4-1.1,3.5-3.8,5.7-5.3c4.2-2.8,10.4,0.4,14.9-2c0.6-0.3,1.2-0.7,1.8-1
	c1-0.5,2.2-0.5,3.3-0.5c1.8,0,3.7,0.1,5.5,0.4c-0.5,2.2-0.6,4.4-0.4,6.6c-4.4-0.2-9-0.4-12.9,1.6c-3,1.5-5.3,4.1-8.2,5.6
	c-7.2,3.8-16.4,0.7-23.9,3.8c-2.2,0.9-4.2,2.4-6.3,3.5c-5,2.6-10.8,3-16.4,3.2c-3.2,0.1-6.5,0.2-9.5,1.5c-2,0.9-3.7,2.4-5.5,3.8
	c-1.8,1.3-3.8,2.6-6,2.8c-1.9,0.2-4.8-0.7-5.3-2.8C10.7,73.9,13.4,74.2,15.9,73.1z"/>
<path class="st9" d="M19.2,78.6c2.4-1.3,4.4-3.1,6.8-4.3c9.2-4.6,21,0.5,30.2-4c2.4-1.2,4.5-2.9,6.8-4.3c4.1-2.4,8.9-3.7,13.7-3.4
	c2.8,0.1,5.7,0.7,8.3-0.1c3.4-1.1,5.8-4.2,9.2-5.1c3-0.8,6.8,0,8.6-2.5c-0.1,1.1-0.3,2.2-0.4,3.3c-2.2-0.4-4.4,0.5-6.2,1.7
	c-1.8,1.2-3.4,2.8-5.4,3.8c-8.2,4.5-19.6-0.7-27.3,4.6c-2.5,1.7-4.4,4.4-7.2,5.6c-1.6,0.7-3.4,0.8-5.2,0.9c-2.6,0.1-5.1,0.1-7.7,0
	c-3.3-0.2-6.5-0.7-9.8-0.6c-3.3,0.1-6.7,0.9-9.2,3c-1.1,0.9-2,2-3.3,2.6c-0.7,0.3-1.4,0.4-2.2,0.5c-1.8,0.3-4,1-5.8,0.7
	C13.4,79.5,17.8,79.3,19.2,78.6z"/>
<path class="st8" d="M19.1,80.1c1.8-0.9,3.5-2.2,5.5-2.7c2.5-0.7,5.2-0.1,7.8,0.3c6.7,1,13.6,0.7,20.2-0.9c1.8-0.5,3.6-1,5.3-2
	c1.2-0.7,2.4-1.6,3.6-2.4c2.6-1.7,5.5-2.7,8.5-3.1c3.8-0.5,7.8,0.1,11.3-1.3c3-1.1,5.6-3.6,8.8-3.9c3.6-0.3,7.5,2.3,10.7,0.6
	c-0.6,4.4-2.5,8.6-5.3,12c-5.5-2.2-12-1.9-17.3,0.6c-2.6,1.2-4.9,3-7.6,3.9c-4.3,1.5-9,0.7-13.5,0.4c-6.1-0.5-12.5-0.2-18.1,2.2
	c-2,0.9-4.1,2-6.3,2.1c-2.5,0.1-4.9-1.3-7.3-2c-2.1-0.6-4.3-0.7-6.4-0.3c-1.3,0.3-2.7,0.7-4,0.4c-1.1-0.3-3.1-2.2-1.4-2.9
	c0.6-0.2,2,0.2,2.7,0.1C17.1,81,18.1,80.6,19.1,80.1z"/>
<path class="st10" d="M18,86.5c3.9-1.2,8.1-0.9,12.1-0.5c0.5,0,1,0.1,1.4-0.1c0.7-0.3,1-1.2,1.4-1.9c1.3-2.1,4.1-2.5,6.5-2.5
	c3,0,6,0.2,9,0.6c2.9,0.4,5.9,1,8.6,0.1c1.8-0.6,3.3-1.7,5.1-2.4c4.2-1.5,8.7,0.1,13.1,0.5c3.5,0.3,7.1-0.1,10.5-1.2
	c1.7-0.6,3.4-1.3,5.1-0.7c1.3,0.5,2.8,1.8,3.9,0.9c-0.8,1.2-1.6,2.4-2.5,3.7c-0.5,0.8-1.1,1.6-2,2c-0.7,0.3-1.5,0.2-2.2,0.2
	c-5.2-0.3-10.5-0.2-15.5,1.2c-1.7,0.5-3.4,1.1-5.1,1.3c-1.8,0.2-3.6-0.1-5.4-0.4c-5.5-0.8-11.1-1-16.6-0.6c-1.6,0.1-3.3,0.3-4.7,1.2
	c-0.6,0.4-1.1,1-1.8,1.3c-0.7,0.3-1.6,0.3-2.4,0.2c-1.9-0.1-3.7-0.3-5.6-0.5c-3.2-0.3-6.3-0.8-9.5-1.3c-1.9-0.3-3.7-0.5-5.6-0.8"/>
<path class="st11" d="M77.8,16.3c-2.3,1.4-4.4,3.2-6.9,4c-3.3,1.2-6.9,0.7-10.3,1.5c-6.9,1.6-11.8,7.8-18.2,10.7
	c-4.1,1.9-9,2.4-12.2,5.7c-1.4,1.4-2.3,3.3-3.6,4.8c-2.7,3.1-6.7,4.7-9.3,7.8c-1.9,2.4-3,5.6-5.7,6.9c-0.9,0.4-1.9,0.6-2.6,1.4
	c-1.2,1.3-0.5,3.5-0.8,5.2c-0.2,1.2-0.9,2.2-1.4,3.3c-0.4,1.1-0.5,2.5,0.3,3.3c1.5-5.9,8.3-8.7,11.6-13.8c1.6-2.4,2.5-5.5,4.8-7.2
	c3.3-2.5,8.1-1.4,12-2.6c2.7-0.8,4.9-2.5,7.1-4.2c3.5-2.8,7-5.5,9.8-8.9c1-1.1,1.9-2.3,3-3.3c2.8-2.2,6.6-2.5,10.2-2.6
	c3.5-0.1,7-0.3,10.4-0.4c0.9,0,1.9-0.1,2.6-0.6c1-0.6,1.5-1.9,2.4-2.7c2.4-2.3,6.3-0.9,9.5-1.8c0.4-0.1,0.8-0.3,1.1-0.6
	c0.6-0.7,0.1-1.8-0.5-2.5c-1.4-1.9-3.6-4-5.9-4.9C82.9,13.8,79.9,15.1,77.8,16.3z"/>
<path class="st9" d="M66.7,9.6c-1.1,0-2.2,0-3.2,0.5c-0.9,0.4-1.7,1.2-2.6,1.7c-3.1,2-7.4,0.9-10.8,2.5c-2.4,1.1-4.1,3.5-6.5,4.8
	c-1.7,0.9-3.7,1.2-5.7,1.7c-4.2,1-8.1,2.9-11.5,5.5c-1.7,1.3-3.4,3-4.1,5c-0.2,0.6-0.4,1.3-0.7,1.9c-0.5,0.9-1.4,1.4-2.2,2
	c-3.4,2.5-5.9,6-7.1,10c-0.5,1.8-0.9,3.8-2.4,5C9.2,51,8.3,51.3,7.6,52c-0.6,0.6-0.8,1.5-1,2.3c-0.3,1.3-0.7,2.5-1,3.8
	c-0.6,2.1-1.1,4.5,0,6.4c1.2-1.5,1.8-3.3,1.7-5.2c-0.1-1.6-0.5-3.6,0.8-4.6c0.5-0.4,1.2-0.5,1.8-0.7c3-0.9,5.2-5.4,6.7-8.2
	c1.5-2.8,2.7-4.2,5.3-6.1c1.8-1.3,3.9-1.8,5.9-2.7s3.9-2.3,4.5-4.4c0.6-2.1,3.7-4,5.6-5.1c0.5-0.3,1.2-0.4,1.8-0.4
	c4.7-0.4,5.8-0.7,10.1-2.8c2.9-1.4,5.1-4.1,8.1-5.4c1.2-0.5,2.4-0.8,3.7-1.1c7.2-1.6,14.6-2.4,22-2.4c0.7,0-2.2-3.8-2.6-4.1
	c-1-0.7-2-1.2-3.2-1.4C74.1,9.4,70.3,9.6,66.7,9.6z"/>
<path class="st8" d="M49.7,3C48.4,3,47,3,45.9,3.6c-0.6,0.3-1.1,0.7-1.6,0.9C43.2,4.9,42,4.7,41,5c-1.7,0.5-2.7,2.3-4,3.6
	c-2.6,2.4-6.6,2.9-8.9,5.5c-1.2,1.4-1.8,3.1-2.8,4.6c-1.9,2.6-5.4,4.1-6.6,7.1c-0.2,0.5-0.3,1-0.5,1.4c-0.6,1-1.7,1.6-2.7,2.3
	c-1.9,1.3-3.5,3.1-4.4,5.2c-0.7,1.5-1.1,3.2-1.4,4.8c-0.4,1.8-0.8,3.6-1.2,5.4c-0.3,1.5-0.7,2.9-1.4,4.3c-1.3,2.5-3.9,4.4-4.1,7.2
	c5.1-5.4,9-12,11.3-19.1c0.8-2.5,1.6-5.3,3.8-6.6c1.4-0.8,3.3-0.9,4.5-2.1c0.8-0.7,1.1-1.8,1.6-2.8c2.7-6.1,8.7-10,14.4-13.6
	c2.3-1.5,4.7-3,7.3-3.9c1.8-0.6,3.7-1,5.7-1.3c3.8-0.6,7.7-0.8,11.6-0.9c0.5,0,1.1,0,1.4-0.4c1.5-2-4.5-2-5.2-2.1
	C56,3.1,52.8,2.9,49.7,3z"/>
<path class="st9" d="M31.9,93.6c3.4,0.7,6.8,0,10.3,0.2c5.5,0.3,10.8,2.6,16.2,1.7c1.8-0.3,3.5-1,5.4-1.2c3.3-0.3,6.6,1,10,0.9
	c3.9-0.1,7.5-2.3,10.9-4.3c1.4-0.9,2.9-1.8,3.9-3.1c1.1-1.3,1.6-3.1,1.1-4.7c-10.2-0.7-19.5,6.2-29.7,6.1c-3.1,0-6.2-0.7-9.2-0.1
	c-1.5,0.3-3,0.9-4.5,1.3c-3,0.8-6.2,0.7-9.3,0.6c-3.1-0.1-6.2-0.2-9.2-0.3c-2.3-0.1-5.1,0-7.3-0.7C24.4,89.8,28,92.8,31.9,93.6z"/>
<path class="st5" d="M14.3,65.7c1.6-2.4,2.7-5.2,4.8-7.2c2.6-2.5,6.4-3.3,9.7-4.8c3.8-1.7,7.1-4.3,10.2-7.1c3.5-3.2,7-7,11.7-7.9
	c3.1-0.6,6.3,0.1,9.3-0.8c4-1.3,6.6-5.2,10.3-7.1c6.1-3.1,13.5-0.2,20.1-1.5c1.7-0.3,3.5-0.9,5.1-0.2c1.5,0.8,2.2,2.5,2.7,4.2
	c0.5,1.4,0.9,2.9,1.4,4.3c-2.6,0.9-5.3-1.1-8.1-1.5c-2.2-0.3-4.5,0.6-6.7,0.9c-5,0.8-10.5-0.7-14.8,1.9c-2.1,1.3-3.6,3.4-5.7,4.9
	c-6.3,4.4-16.2,1.4-21.7,6.9c-1.9,1.9-2.9,4.4-4.8,6.3c-2.8,2.7-6.9,3.2-10.7,3.9c-3.8,0.7-7.9,2.1-9.7,5.5c-0.5,1-0.8,2-1.3,3
	c-1.1,1.8-9.1,6.2-9.7,2.8c-0.3-1.7,1.7-1.9,2.9-2.5C11.6,69.1,13.1,67.6,14.3,65.7z"/>
<path class="st12" d="M77.9,51.1c0,1.9-1.5,3.4-3.4,3.4s-3.4-1.5-3.4-3.4s1.5-3.4,3.4-3.4S77.9,49.3,77.9,51.1z"/>
<circle class="st13" cx="84.6" cy="45.9" r="9.8"/>
<circle class="st14" cx="52.9" cy="52.9" r="49.6"/>
<polygon class="st2" points="28.2,94.7 30.5,98.7 25.8,98.5 21.8,100.8 22,96.1 19.7,92 24.4,92.3 28.4,90 "/>
<polygon class="st2" points="88.3,11 94.8,17 86.3,19.2 80.3,25.7 78.1,17.2 71.6,11.2 80.1,9 86.1,2.5 "/>
<polygon class="st2" points="99.8,69.6 103.6,71.6 99.8,73.7 97.7,77.5 95.6,73.7 91.8,71.6 95.6,69.6 97.7,65.7 "/>
</svg>
